<?xml version="1.0" ?>
<!-- Uploaded to: SVG Repo, www.svgrepo.com, Generator: SVG Repo Mixer Tools -->
<svg width="800px" height="800px" viewBox="0 0 64 64" xmlns="http://www.w3.org/2000/svg">
<defs>
<style>.cls-1{fill:none;}.cls-2{fill:#fdbf00;}.cls-3{fill:#d8d8fc;}.cls-4{fill:#4bb9ec;}.cls-5{fill:#fd9200;}</style>
</defs>
<title/>
<g id="promotion">
<circle class="cls-1" cx="10.5" cy="10.5" r="1.231"/>
<path class="cls-2" d="M6.159,8.624a1,1,0,0,1,.327.979,4.109,4.109,0,0,0,0,1.794,1,1,0,0,1-.327.979l-.61.521a5.521,5.521,0,0,0,.4.692l.756-.268a1,1,0,0,1,1.011.207,4.11,4.11,0,0,0,1.554.9,1,1,0,0,1,.684.772l.146.788a5.328,5.328,0,0,0,.8,0l.146-.788a1,1,0,0,1,.684-.772,4.111,4.111,0,0,0,1.554-.9,1,1,0,0,1,1.011-.207l.756.268a5.484,5.484,0,0,0,.4-.693l-.61-.52a1,1,0,0,1-.327-.979,4.111,4.111,0,0,0,0-1.794,1,1,0,0,1,.327-.979l.61-.521a5.524,5.524,0,0,0-.4-.692l-.756.268a1,1,0,0,1-1.011-.207,4.11,4.11,0,0,0-1.554-.9,1,1,0,0,1-.684-.772L10.9,5.015h0a5.329,5.329,0,0,0-.8,0L9.954,5.8a1,1,0,0,1-.684.772,4.109,4.109,0,0,0-1.554.9,1,1,0,0,1-1.011.207l-.756-.268a5.468,5.468,0,0,0-.4.693ZM10.5,7.269A3.231,3.231,0,1,1,7.27,10.5,3.232,3.232,0,0,1,10.5,7.269Z"/>
<path d="M3.4,12.929a7.49,7.49,0,0,0,1.444,2.5,1,1,0,0,0,1.087.286l.9-.32a6.154,6.154,0,0,0,1.253.723l.174.942a1,1,0,0,0,.791.8,7.5,7.5,0,0,0,2.888,0,1,1,0,0,0,.791-.8l.174-.942a6.131,6.131,0,0,0,1.253-.724l.9.321a1,1,0,0,0,1.087-.286,7.491,7.491,0,0,0,1.444-2.5,1,1,0,0,0-.3-1.084l-.728-.622a6.117,6.117,0,0,0,0-1.447l.729-.621a1,1,0,0,0,.3-1.084,7.491,7.491,0,0,0-1.444-2.5,1,1,0,0,0-1.087-.286l-.9.32a6.155,6.155,0,0,0-1.253-.723l-.174-.942a1,1,0,0,0-.791-.8,7.5,7.5,0,0,0-2.888,0,1,1,0,0,0-.791.8l-.174.942a6.136,6.136,0,0,0-1.253.724l-.9-.321a1,1,0,0,0-1.087.286A7.49,7.49,0,0,0,3.4,8.071a1,1,0,0,0,.3,1.084l.729.622a6.12,6.12,0,0,0,0,1.447l-.729.621A1,1,0,0,0,3.4,12.929Zm3.3-5.25a1,1,0,0,0,1.011-.207,4.109,4.109,0,0,1,1.554-.9A1,1,0,0,0,9.954,5.8l.146-.788a5.329,5.329,0,0,1,.8,0h0l.146.788a1,1,0,0,0,.684.772,4.11,4.11,0,0,1,1.554.9,1,1,0,0,0,1.011.207l.756-.268a5.524,5.524,0,0,1,.4.692l-.61.521a1,1,0,0,0-.327.979,4.111,4.111,0,0,1,0,1.794,1,1,0,0,0,.327.979l.61.52a5.484,5.484,0,0,1-.4.693l-.756-.268a1,1,0,0,0-1.011.207,4.111,4.111,0,0,1-1.554.9,1,1,0,0,0-.684.772l-.146.788a5.328,5.328,0,0,1-.8,0L9.954,15.2a1,1,0,0,0-.684-.772,4.11,4.11,0,0,1-1.554-.9,1,1,0,0,0-1.011-.207l-.756.268a5.521,5.521,0,0,1-.4-.692l.61-.521a1,1,0,0,0,.327-.979,4.109,4.109,0,0,1,0-1.794,1,1,0,0,0-.327-.979L5.55,8.1a5.468,5.468,0,0,1,.4-.693Z"/>
<path d="M10.5,13.731A3.231,3.231,0,1,0,7.27,10.5,3.232,3.232,0,0,0,10.5,13.731Zm0-4.462A1.231,1.231,0,1,1,9.27,10.5,1.232,1.232,0,0,1,10.5,9.269Z"/>
<path class="cls-3" d="M21,28.723l14.129-5.651A1,1,0,0,1,36.5,24V35H52a1,1,0,0,1,.707.293L59,41.586V5H21ZM40,7H56a1,1,0,0,1,0,2H40a1,1,0,0,1,0-2Zm0,4H56a1,1,0,0,1,0,2H40a1,1,0,0,1,0-2Zm0,4H56a1,1,0,0,1,0,2H40a1,1,0,0,1,0-2Zm0,4H56a1,1,0,0,1,0,2H40a1,1,0,0,1,0-2Zm0,4H56a1,1,0,0,1,0,2H40a1,1,0,0,1,0-2Zm0,4H56a1,1,0,0,1,0,2H40a1,1,0,0,1,0-2ZM23,8a1,1,0,0,1,1-1H36a1,1,0,0,1,1,1V20a1,1,0,0,1-1,1H24a1,1,0,0,1-1-1Z"/>
<rect class="cls-4" height="10" width="10" x="25" y="9"/>
<path d="M24,21H36a1,1,0,0,0,1-1V8a1,1,0,0,0-1-1H24a1,1,0,0,0-1,1V20A1,1,0,0,0,24,21ZM25,9H35V19H25Z"/>
<path d="M40,9H56a1,1,0,0,0,0-2H40a1,1,0,0,0,0,2Z"/>
<path d="M40,13H56a1,1,0,0,0,0-2H40a1,1,0,0,0,0,2Z"/>
<path d="M40,17H56a1,1,0,0,0,0-2H40a1,1,0,0,0,0,2Z"/>
<path d="M40,21H56a1,1,0,0,0,0-2H40a1,1,0,0,0,0,2Z"/>
<path d="M40,25H56a1,1,0,0,0,0-2H40a1,1,0,0,0,0,2Z"/>
<path d="M40,29H56a1,1,0,0,0,0-2H40a1,1,0,0,0,0,2Z"/>
<polygon class="cls-5" points="33 53.423 34.5 54.023 34.5 25.477 33 26.077 33 53.423"/>
<path class="cls-5" d="M10.75,45.5H12V34H10.75a5.75,5.75,0,0,0,0,11.5Z"/>
<polygon class="cls-5" points="14 59 16.5 59 16.5 48.977 14 47.977 14 59"/>
<polygon class="cls-2" points="31 26.877 14 33.677 14 45.823 31 52.623 31 26.877"/>
<path d="M60,3H20a1,1,0,0,0-1,1V29.523L12.807,32H10.75a7.75,7.75,0,0,0,0,15.5H12V60a1,1,0,0,0,1,1h4.5a1,1,0,0,0,1-1V49.777l16.629,6.651A1,1,0,0,0,36.5,55.5V37H51.586l7.707,7.707A1,1,0,0,0,61,44V4A1,1,0,0,0,60,3ZM59,41.586l-6.293-6.293A1,1,0,0,0,52,35H36.5V24a1,1,0,0,0-1.371-.928L21,28.723V5H59ZM34.5,54.023l-1.5-.6V26.077l1.5-.6ZM16.5,59H14V47.977l2.5,1ZM10.75,34H12V45.5H10.75a5.75,5.75,0,0,1,0-11.5ZM14,45.823V33.677l17-6.8V52.623Z"/>
</g>
</svg>